<mxfile host="65bd71144e">
    <diagram id="2GxNQkwLjC41U_vArSxZ" name="第 1 页">
        <mxGraphModel dx="1390" dy="567" grid="0" gridSize="10" guides="1" tooltips="1" connect="1" arrows="1" fold="1" page="0" pageScale="1" pageWidth="827" pageHeight="1169" background="#ffffff" math="0" shadow="0">
            <root>
                <mxCell id="0"/>
                <mxCell id="1" parent="0"/>
                <mxCell id="2" value="原数据" style="rounded=1;whiteSpace=wrap;html=1;fillColor=#f5f5f5;fontColor=#333333;strokeColor=#666666;" vertex="1" parent="1">
                    <mxGeometry x="169" y="219" width="120" height="60" as="geometry"/>
                </mxCell>
                <mxCell id="3" value="组分数" style="rounded=1;whiteSpace=wrap;html=1;fontFamily=Helvetica;fontSize=12;fontColor=#333333;strokeColor=#666666;fillColor=#f5f5f5;" vertex="1" parent="1">
                    <mxGeometry x="169" y="321" width="120" height="60" as="geometry"/>
                </mxCell>
                <mxCell id="4" value="方差（特征值）" style="rounded=1;whiteSpace=wrap;html=1;fontFamily=Helvetica;fontSize=12;fontColor=#333333;strokeColor=#666666;fillColor=#f5f5f5;" vertex="1" parent="1">
                    <mxGeometry x="169" y="423" width="120" height="60" as="geometry"/>
                </mxCell>
                <mxCell id="5" value="特征向量" style="rounded=1;whiteSpace=wrap;html=1;fontFamily=Helvetica;fontSize=12;fontColor=#333333;strokeColor=#666666;fillColor=#f5f5f5;" vertex="1" parent="1">
                    <mxGeometry x="169" y="524" width="120" height="60" as="geometry"/>
                </mxCell>
                <mxCell id="6" value="处理后数据" style="rounded=1;whiteSpace=wrap;html=1;fontFamily=Helvetica;fontSize=12;fontColor=#333333;strokeColor=#666666;fillColor=#f5f5f5;" vertex="1" parent="1">
                    <mxGeometry x="169" y="626" width="120" height="60" as="geometry"/>
                </mxCell>
                <mxCell id="9" style="edgeStyle=orthogonalEdgeStyle;html=1;exitX=1;exitY=0.5;exitDx=0;exitDy=0;entryX=0;entryY=0.5;entryDx=0;entryDy=0;fontFamily=Helvetica;fontSize=12;fontColor=#333333;fillColor=#0050ef;strokeColor=#001DBC;" edge="1" parent="1" source="7" target="2">
                    <mxGeometry relative="1" as="geometry"/>
                </mxCell>
                <mxCell id="10" style="edgeStyle=orthogonalEdgeStyle;shape=connector;rounded=1;html=1;exitX=1;exitY=0.5;exitDx=0;exitDy=0;entryX=0;entryY=0.5;entryDx=0;entryDy=0;labelBackgroundColor=default;fontFamily=Helvetica;fontSize=12;fontColor=#333333;endArrow=classic;strokeColor=#001DBC;fillColor=#0050ef;" edge="1" parent="1" source="7" target="3">
                    <mxGeometry relative="1" as="geometry"/>
                </mxCell>
                <mxCell id="11" style="edgeStyle=orthogonalEdgeStyle;shape=connector;rounded=1;html=1;exitX=1;exitY=0.5;exitDx=0;exitDy=0;labelBackgroundColor=default;fontFamily=Helvetica;fontSize=12;fontColor=#333333;endArrow=classic;strokeColor=#001DBC;fillColor=#0050ef;" edge="1" parent="1" source="7" target="4">
                    <mxGeometry relative="1" as="geometry"/>
                </mxCell>
                <mxCell id="12" style="edgeStyle=orthogonalEdgeStyle;shape=connector;rounded=1;html=1;exitX=1;exitY=0.5;exitDx=0;exitDy=0;entryX=0;entryY=0.5;entryDx=0;entryDy=0;labelBackgroundColor=default;fontFamily=Helvetica;fontSize=12;fontColor=#333333;endArrow=classic;strokeColor=#001DBC;fillColor=#0050ef;" edge="1" parent="1" source="7" target="5">
                    <mxGeometry relative="1" as="geometry"/>
                </mxCell>
                <mxCell id="13" style="edgeStyle=orthogonalEdgeStyle;shape=connector;rounded=1;html=1;exitX=1;exitY=0.5;exitDx=0;exitDy=0;entryX=0;entryY=0.5;entryDx=0;entryDy=0;labelBackgroundColor=default;fontFamily=Helvetica;fontSize=12;fontColor=#333333;endArrow=classic;strokeColor=#001DBC;fillColor=#0050ef;" edge="1" parent="1" source="7" target="6">
                    <mxGeometry relative="1" as="geometry"/>
                </mxCell>
                <mxCell id="7" value="PCA元素" style="rounded=1;whiteSpace=wrap;html=1;fontFamily=Helvetica;fontSize=12;fontColor=#333333;strokeColor=#666666;fillColor=#f5f5f5;" vertex="1" parent="1">
                    <mxGeometry x="-34" y="423" width="120" height="60" as="geometry"/>
                </mxCell>
                <mxCell id="14" value="基本思想是，利用方差最大化原理，通过矩阵对角化的方法，计算出最大的方差，并使协方差为0，得出的特征向量组合后就是变形的矩阵" style="rounded=1;whiteSpace=wrap;html=1;fontFamily=Helvetica;fontSize=12;fontColor=#333333;strokeColor=#666666;fillColor=#f5f5f5;" vertex="1" parent="1">
                    <mxGeometry x="-34" y="21" width="434" height="60" as="geometry"/>
                </mxCell>
                <mxCell id="15" value="缺点，1、比较适合对线性相关性进行降维，不适合非线性相关性降维&lt;br&gt;2、降维后的数据本事是没有物理意义的" style="rounded=1;whiteSpace=wrap;html=1;fontFamily=Helvetica;fontSize=12;fontColor=#333333;strokeColor=#666666;fillColor=#f5f5f5;" vertex="1" parent="1">
                    <mxGeometry x="-34" y="117" width="427" height="60" as="geometry"/>
                </mxCell>
                <mxCell id="24" style="edgeStyle=orthogonalEdgeStyle;shape=connector;rounded=1;html=1;exitX=1;exitY=0.5;exitDx=0;exitDy=0;labelBackgroundColor=default;fontFamily=Helvetica;fontSize=12;fontColor=#333333;endArrow=classic;strokeColor=#001DBC;fillColor=#0050ef;" edge="1" parent="1" source="16" target="18">
                    <mxGeometry relative="1" as="geometry"/>
                </mxCell>
                <mxCell id="25" style="edgeStyle=orthogonalEdgeStyle;shape=connector;rounded=1;html=1;exitX=1;exitY=0.5;exitDx=0;exitDy=0;entryX=0;entryY=0.5;entryDx=0;entryDy=0;labelBackgroundColor=default;fontFamily=Helvetica;fontSize=12;fontColor=#333333;endArrow=classic;strokeColor=#001DBC;fillColor=#0050ef;" edge="1" parent="1" source="16" target="19">
                    <mxGeometry relative="1" as="geometry"/>
                </mxCell>
                <mxCell id="26" style="edgeStyle=orthogonalEdgeStyle;shape=connector;rounded=1;html=1;exitX=1;exitY=0.5;exitDx=0;exitDy=0;entryX=0;entryY=0.5;entryDx=0;entryDy=0;labelBackgroundColor=default;fontFamily=Helvetica;fontSize=12;fontColor=#333333;endArrow=classic;strokeColor=#001DBC;fillColor=#0050ef;" edge="1" parent="1" source="16" target="20">
                    <mxGeometry relative="1" as="geometry"/>
                </mxCell>
                <mxCell id="27" style="edgeStyle=orthogonalEdgeStyle;shape=connector;rounded=1;html=1;exitX=1;exitY=0.5;exitDx=0;exitDy=0;entryX=0;entryY=0.5;entryDx=0;entryDy=0;labelBackgroundColor=default;fontFamily=Helvetica;fontSize=12;fontColor=#333333;endArrow=classic;strokeColor=#001DBC;fillColor=#0050ef;" edge="1" parent="1" source="16" target="21">
                    <mxGeometry relative="1" as="geometry"/>
                </mxCell>
                <mxCell id="28" style="edgeStyle=orthogonalEdgeStyle;shape=connector;rounded=1;html=1;exitX=1;exitY=0.5;exitDx=0;exitDy=0;entryX=0;entryY=0.5;entryDx=0;entryDy=0;labelBackgroundColor=default;fontFamily=Helvetica;fontSize=12;fontColor=#333333;endArrow=classic;strokeColor=#001DBC;fillColor=#0050ef;" edge="1" parent="1" source="16" target="22">
                    <mxGeometry relative="1" as="geometry"/>
                </mxCell>
                <mxCell id="29" style="edgeStyle=orthogonalEdgeStyle;shape=connector;rounded=1;html=1;exitX=1;exitY=0.5;exitDx=0;exitDy=0;entryX=0;entryY=0.5;entryDx=0;entryDy=0;labelBackgroundColor=default;fontFamily=Helvetica;fontSize=12;fontColor=#333333;endArrow=classic;strokeColor=#001DBC;fillColor=#0050ef;" edge="1" parent="1" source="16" target="23">
                    <mxGeometry relative="1" as="geometry"/>
                </mxCell>
                <mxCell id="16" value="算法步骤" style="rounded=1;whiteSpace=wrap;html=1;fontFamily=Helvetica;fontSize=12;fontColor=#333333;strokeColor=#666666;fillColor=#f5f5f5;" vertex="1" parent="1">
                    <mxGeometry x="-34" y="1044" width="120" height="60" as="geometry"/>
                </mxCell>
                <mxCell id="30" style="edgeStyle=orthogonalEdgeStyle;shape=connector;rounded=1;html=1;exitX=1;exitY=0.5;exitDx=0;exitDy=0;entryX=0;entryY=0.5;entryDx=0;entryDy=0;labelBackgroundColor=default;fontFamily=Helvetica;fontSize=12;fontColor=#333333;endArrow=classic;strokeColor=#001DBC;fillColor=#0050ef;" edge="1" parent="1" source="17" target="14">
                    <mxGeometry relative="1" as="geometry"/>
                </mxCell>
                <mxCell id="31" style="edgeStyle=orthogonalEdgeStyle;shape=connector;rounded=1;html=1;exitX=1;exitY=0.5;exitDx=0;exitDy=0;entryX=0;entryY=0.5;entryDx=0;entryDy=0;labelBackgroundColor=default;fontFamily=Helvetica;fontSize=12;fontColor=#333333;endArrow=classic;strokeColor=#001DBC;fillColor=#0050ef;" edge="1" parent="1" source="17" target="15">
                    <mxGeometry relative="1" as="geometry"/>
                </mxCell>
                <mxCell id="32" style="edgeStyle=orthogonalEdgeStyle;shape=connector;rounded=1;html=1;exitX=1;exitY=0.5;exitDx=0;exitDy=0;labelBackgroundColor=default;fontFamily=Helvetica;fontSize=12;fontColor=#333333;endArrow=classic;strokeColor=#001DBC;fillColor=#0050ef;" edge="1" parent="1" source="17" target="7">
                    <mxGeometry relative="1" as="geometry"/>
                </mxCell>
                <mxCell id="33" style="edgeStyle=orthogonalEdgeStyle;shape=connector;rounded=1;html=1;exitX=1;exitY=0.5;exitDx=0;exitDy=0;entryX=0;entryY=0.5;entryDx=0;entryDy=0;labelBackgroundColor=default;fontFamily=Helvetica;fontSize=12;fontColor=#333333;endArrow=classic;strokeColor=#001DBC;fillColor=#0050ef;" edge="1" parent="1" source="17" target="16">
                    <mxGeometry relative="1" as="geometry"/>
                </mxCell>
                <mxCell id="35" style="edgeStyle=orthogonalEdgeStyle;shape=connector;rounded=1;html=1;exitX=1;exitY=0.5;exitDx=0;exitDy=0;entryX=0;entryY=0.5;entryDx=0;entryDy=0;labelBackgroundColor=default;fontFamily=Helvetica;fontSize=12;fontColor=#333333;endArrow=classic;strokeColor=#001DBC;fillColor=#0050ef;" edge="1" parent="1" source="17" target="34">
                    <mxGeometry relative="1" as="geometry"/>
                </mxCell>
                <mxCell id="17" value="PCA算法" style="rounded=1;whiteSpace=wrap;html=1;fontFamily=Helvetica;fontSize=12;fontColor=#333333;strokeColor=#666666;fillColor=#f5f5f5;" vertex="1" parent="1">
                    <mxGeometry x="-259" y="423" width="120" height="60" as="geometry"/>
                </mxCell>
                <mxCell id="18" value="将原始数据组成一个m行，n列的矩阵" style="rounded=1;whiteSpace=wrap;html=1;fontFamily=Helvetica;fontSize=12;fontColor=#333333;strokeColor=#666666;fillColor=#f5f5f5;" vertex="1" parent="1">
                    <mxGeometry x="180" y="1044" width="253" height="60" as="geometry"/>
                </mxCell>
                <mxCell id="19" value="将矩阵进行归一化处理" style="rounded=1;whiteSpace=wrap;html=1;fontFamily=Helvetica;fontSize=12;fontColor=#333333;strokeColor=#666666;fillColor=#f5f5f5;" vertex="1" parent="1">
                    <mxGeometry x="180" y="1167" width="218" height="60" as="geometry"/>
                </mxCell>
                <mxCell id="20" value="&lt;span style=&quot;color: rgb(90 , 90 , 90) ; font-family: &amp;#34;helvetica neue&amp;#34; , &amp;#34;helvetica&amp;#34; , &amp;#34;arial&amp;#34; , &amp;#34;hiragino sans gb&amp;#34; , &amp;#34;hiragino sans gb w3&amp;#34; , &amp;#34;wenquanyi micro hei&amp;#34; , &amp;#34;microsoft yahei ui&amp;#34; , &amp;#34;microsoft yahei&amp;#34; , sans-serif ; font-size: 16px&quot;&gt;求出协方差矩阵&lt;/span&gt;&lt;span class=&quot;MathJax&quot; id=&quot;MathJax-Element-37-Frame&quot; tabindex=&quot;0&quot; style=&quot;display: inline ; line-height: normal ; font-size: 16px ; text-align: left ; overflow-wrap: normal ; float: none ; direction: ltr ; max-width: none ; max-height: none ; min-width: 0px ; min-height: 0px ; border: 0px ; padding: 0px ; margin: 0px ; color: rgb(90 , 90 , 90) ; font-family: &amp;#34;helvetica neue&amp;#34; , &amp;#34;helvetica&amp;#34; , &amp;#34;arial&amp;#34; , &amp;#34;hiragino sans gb&amp;#34; , &amp;#34;hiragino sans gb w3&amp;#34; , &amp;#34;wenquanyi micro hei&amp;#34; , &amp;#34;microsoft yahei ui&amp;#34; , &amp;#34;microsoft yahei&amp;#34; , sans-serif ; position: relative&quot;&gt;&lt;nobr style=&quot;transition: none 0s ease 0s ; border: 0px ; padding: 0px ; margin: 0px ; max-width: none ; max-height: none ; min-width: 0px ; min-height: 0px ; vertical-align: 0px ; line-height: normal&quot;&gt;&lt;span class=&quot;math&quot; id=&quot;MathJax-Span-1153&quot; style=&quot;transition: none 0s ease 0s ; display: inline-block ; position: static ; border: 0px ; padding: 0px ; margin: 0px ; vertical-align: 0px ; line-height: normal ; width: 6.409em&quot;&gt;&lt;span style=&quot;transition: none 0s ease 0s ; display: inline-block ; position: relative ; border: 0px ; padding: 0px ; margin: 0px ; vertical-align: 0px ; line-height: normal ; width: 5.315em ; height: 0px ; font-size: 19.2px&quot;&gt;&lt;span style=&quot;transition: none 0s ease 0s ; position: absolute ; border: 0px ; padding: 0px ; margin: 0px ; vertical-align: 0px ; line-height: normal ; clip: rect(1.148em , 1005.32em , 2.711em , -999.997em) ; top: -2.185em ; left: 0em&quot;&gt;&lt;span class=&quot;mrow&quot; id=&quot;MathJax-Span-1154&quot; style=&quot;transition: none 0s ease 0s ; display: inline ; position: static ; border: 0px ; padding: 0px ; margin: 0px ; vertical-align: 0px ; line-height: normal&quot;&gt;&lt;span class=&quot;mi&quot; id=&quot;MathJax-Span-1155&quot; style=&quot;transition: none 0s ease 0s ; display: inline ; position: static ; border: 0px ; padding: 0px ; margin: 0px ; vertical-align: 0px ; line-height: normal&quot;&gt;C&lt;span style=&quot;transition: none 0s ease 0s ; display: inline-block ; position: static ; border: 0px ; padding: 0px ; margin: 0px ; vertical-align: 0px ; line-height: normal ; overflow: hidden ; height: 1px ; width: 0.055em&quot;&gt;&lt;/span&gt;&lt;/span&gt;&lt;span class=&quot;mo&quot; id=&quot;MathJax-Span-1156&quot; style=&quot;transition: none 0s ease 0s ; display: inline ; position: static ; border: 0px ; padding: 0px 0px 0px 0.263em ; margin: 0px ; vertical-align: 0px ; line-height: normal ; font-family: &amp;#34;mathjax_main&amp;#34;&quot;&gt;=&lt;/span&gt;&lt;span class=&quot;mfrac&quot; id=&quot;MathJax-Span-1157&quot; style=&quot;transition: none 0s ease 0s ; display: inline ; position: static ; border: 0px ; padding: 0px 0px 0px 0.263em ; margin: 0px ; vertical-align: 0px ; line-height: normal&quot;&gt;&lt;span style=&quot;transition: none 0s ease 0s ; display: inline-block ; position: relative ; border: 0px ; padding: 0px ; margin: 0px 0.107em ; vertical-align: 0px ; line-height: normal ; width: 0.732em ; height: 0px&quot;&gt;&lt;span style=&quot;transition: none 0s ease 0s ; position: absolute ; border: 0px ; padding: 0px ; margin: 0px 0px 0px -0.154em ; vertical-align: 0px ; line-height: normal ; clip: rect(3.388em , 1000.32em , 4.169em , -999.997em) ; top: -4.424em ; left: 7.025px&quot;&gt;&lt;span class=&quot;mn&quot; id=&quot;MathJax-Span-1158&quot; style=&quot;transition: none 0s ease 0s ; display: inline ; position: static ; border: 0px ; padding: 0px ; margin: 0px ; vertical-align: 0px ; line-height: normal ; font-size: 13.5744px ; font-family: &amp;#34;mathjax_main&amp;#34;&quot;&gt;1&lt;/span&gt;&lt;span style=&quot;transition: none 0s ease 0s ; display: inline-block ; position: static ; border: 0px ; padding: 0px ; margin: 0px ; vertical-align: 0px ; line-height: normal ; width: 0px ; height: 4.013em&quot;&gt;&lt;/span&gt;&lt;/span&gt;&lt;span style=&quot;transition: none 0s ease 0s ; position: absolute ; border: 0px ; padding: 0px ; margin: 0px 0px 0px -0.31em ; vertical-align: 0px ; line-height: normal ; clip: rect(3.544em , 1000.63em , 4.169em , -999.997em) ; top: -3.643em ; left: 7.025px&quot;&gt;&lt;span class=&quot;mi&quot; id=&quot;MathJax-Span-1159&quot; style=&quot;transition: none 0s ease 0s ; display: inline ; position: static ; border: 0px ; padding: 0px ; margin: 0px ; vertical-align: 0px ; line-height: normal ; font-size: 13.5744px&quot;&gt;m&lt;/span&gt;&lt;span style=&quot;transition: none 0s ease 0s ; display: inline-block ; position: static ; border: 0px ; padding: 0px ; margin: 0px ; vertical-align: 0px ; line-height: normal ; width: 0px ; height: 4.013em&quot;&gt;&lt;/span&gt;&lt;/span&gt;&lt;span style=&quot;transition: none 0s ease 0s ; position: absolute ; border: 0px ; padding: 0px ; margin: 0px ; vertical-align: 0px ; line-height: normal ; clip: rect(0.836em , 1000.73em , 1.201em , -999.997em) ; top: -1.247em ; left: 0em&quot;&gt;&lt;span style=&quot;transition: none 0s ease 0s ; display: inline-block ; position: static ; border-width: 1.3px 0px 0px ; border-top-style: solid ; padding: 0px ; margin: 0px ; vertical-align: 0em ; line-height: normal ; overflow: hidden ; width: 0.732em ; height: 0px&quot;&gt;&lt;/span&gt;&lt;span style=&quot;transition: none 0s ease 0s ; display: inline-block ; position: static ; border: 0px ; padding: 0px ; margin: 0px ; vertical-align: 0px ; line-height: normal ; width: 0px ; height: 1.044em&quot;&gt;&lt;/span&gt;&lt;/span&gt;&lt;/span&gt;&lt;/span&gt;&lt;span class=&quot;mi&quot; id=&quot;MathJax-Span-1160&quot; style=&quot;transition: none 0s ease 0s ; display: inline ; position: static ; border: 0px ; padding: 0px ; margin: 0px ; vertical-align: 0px ; line-height: normal&quot;&gt;X&lt;span style=&quot;transition: none 0s ease 0s ; display: inline-block ; position: static ; border: 0px ; padding: 0px ; margin: 0px ; vertical-align: 0px ; line-height: normal ; overflow: hidden ; height: 1px ; width: 0.003em&quot;&gt;&lt;/span&gt;&lt;/span&gt;&lt;span class=&quot;msubsup&quot; id=&quot;MathJax-Span-1161&quot; style=&quot;transition: none 0s ease 0s ; display: inline ; position: static ; border: 0px ; padding: 0px ; margin: 0px ; vertical-align: 0px ; line-height: normal&quot;&gt;&lt;span style=&quot;transition: none 0s ease 0s ; display: inline-block ; position: relative ; border: 0px ; padding: 0px ; margin: 0px ; vertical-align: 0px ; line-height: normal ; width: 1.461em ; height: 0px&quot;&gt;&lt;span style=&quot;transition: none 0s ease 0s ; position: absolute ; border: 0px ; padding: 0px ; margin: 0px ; vertical-align: 0px ; line-height: normal ; clip: rect(3.18em , 1000.84em , 4.169em , -999.997em) ; top: -4.008em ; left: 0em&quot;&gt;&lt;span class=&quot;mi&quot; id=&quot;MathJax-Span-1162&quot; style=&quot;transition: none 0s ease 0s ; display: inline ; position: static ; border: 0px ; padding: 0px ; margin: 0px ; vertical-align: 0px ; line-height: normal&quot;&gt;X&lt;span style=&quot;transition: none 0s ease 0s ; display: inline-block ; position: static ; border: 0px ; padding: 0px ; margin: 0px ; vertical-align: 0px ; line-height: normal ; overflow: hidden ; height: 1px ; width: 0.003em&quot;&gt;&lt;/span&gt;&lt;/span&gt;&lt;span style=&quot;transition: none 0s ease 0s ; display: inline-block ; position: static ; border: 0px ; padding: 0px ; margin: 0px ; vertical-align: 0px ; line-height: normal ; width: 0px ; height: 4.013em&quot;&gt;&lt;/span&gt;&lt;/span&gt;&lt;span style=&quot;transition: none 0s ease 0s ; position: absolute ; border: 0px ; padding: 0px ; margin: 0px ; vertical-align: 0px ; line-height: normal ; top: -4.372em ; left: 0.888em&quot;&gt;&lt;span class=&quot;texatom&quot; id=&quot;MathJax-Span-1163&quot; style=&quot;transition: none 0s ease 0s ; display: inline ; position: static ; border: 0px ; padding: 0px ; margin: 0px ; vertical-align: 0px ; line-height: normal&quot;&gt;&lt;span class=&quot;mrow&quot; id=&quot;MathJax-Span-1164&quot; style=&quot;transition: none 0s ease 0s ; display: inline ; position: static ; border: 0px ; padding: 0px ; margin: 0px ; vertical-align: 0px ; line-height: normal&quot;&gt;&lt;span class=&quot;mi&quot; id=&quot;MathJax-Span-1165&quot; style=&quot;transition: none 0s ease 0s ; display: inline ; position: static ; border: 0px ; padding: 0px ; margin: 0px ; vertical-align: 0px ; line-height: normal ; font-size: 13.5744px ; font-family: &amp;#34;mathjax_sansserif&amp;#34;&quot;&gt;T&lt;/span&gt;&lt;/span&gt;&lt;/span&gt;&lt;span style=&quot;transition: none 0s ease 0s ; display: inline-block ; position: static ; border: 0px ; padding: 0px ; margin: 0px ; vertical-align: 0px ; line-height: normal ; width: 0px ; height: 4.013em&quot;&gt;&lt;/span&gt;&lt;/span&gt;&lt;/span&gt;&lt;/span&gt;&lt;/span&gt;&lt;span style=&quot;transition: none 0s ease 0s ; display: inline-block ; position: static ; border: 0px ; padding: 0px ; margin: 0px ; vertical-align: 0px ; line-height: normal ; width: 0px ; height: 2.19em&quot;&gt;&lt;/span&gt;&lt;/span&gt;&lt;/span&gt;&lt;span style=&quot;transition: none 0s ease 0s ; display: inline-block ; position: static ; border-width: 0px ; border-left-style: solid ; padding: 0px ; margin: 0px ; vertical-align: -0.497em ; line-height: normal ; overflow: hidden ; width: 0px ; height: 1.628em&quot;&gt;&lt;/span&gt;&lt;/span&gt;&lt;/nobr&gt;&lt;/span&gt;" style="rounded=1;whiteSpace=wrap;html=1;fontFamily=Helvetica;fontSize=12;fontColor=#333333;strokeColor=#666666;fillColor=#f5f5f5;" vertex="1" parent="1">
                    <mxGeometry x="180" y="1283" width="254" height="60" as="geometry"/>
                </mxCell>
                <mxCell id="21" value="&lt;span style=&quot;color: rgb(90 , 90 , 90) ; font-family: &amp;#34;helvetica neue&amp;#34; , &amp;#34;helvetica&amp;#34; , &amp;#34;arial&amp;#34; , &amp;#34;hiragino sans gb&amp;#34; , &amp;#34;hiragino sans gb w3&amp;#34; , &amp;#34;wenquanyi micro hei&amp;#34; , &amp;#34;microsoft yahei ui&amp;#34; , &amp;#34;microsoft yahei&amp;#34; , sans-serif ; font-size: 16px&quot;&gt;求出协方差矩阵的特征值及对应的特征向量&lt;/span&gt;" style="rounded=1;whiteSpace=wrap;html=1;fontFamily=Helvetica;fontSize=12;fontColor=#333333;strokeColor=#666666;fillColor=#f5f5f5;" vertex="1" parent="1">
                    <mxGeometry x="180" y="1399" width="325" height="60" as="geometry"/>
                </mxCell>
                <mxCell id="22" value="&lt;span style=&quot;color: rgb(90 , 90 , 90) ; font-family: &amp;#34;helvetica neue&amp;#34; , &amp;#34;helvetica&amp;#34; , &amp;#34;arial&amp;#34; , &amp;#34;hiragino sans gb&amp;#34; , &amp;#34;hiragino sans gb w3&amp;#34; , &amp;#34;wenquanyi micro hei&amp;#34; , &amp;#34;microsoft yahei ui&amp;#34; , &amp;#34;microsoft yahei&amp;#34; , sans-serif ; font-size: 16px&quot;&gt;将特征向量按对应特征值大小从上到下按行排列成矩阵，取前k行组成矩阵P&lt;/span&gt;" style="rounded=1;whiteSpace=wrap;html=1;fontFamily=Helvetica;fontSize=12;fontColor=#333333;strokeColor=#666666;fillColor=#f5f5f5;" vertex="1" parent="1">
                    <mxGeometry x="180" y="1511" width="327" height="60" as="geometry"/>
                </mxCell>
                <mxCell id="23" value="&lt;span class=&quot;MathJax&quot; id=&quot;MathJax-Element-38-Frame&quot; tabindex=&quot;0&quot; style=&quot;display: inline-table ; line-height: normal ; font-size: 16px ; text-align: left ; overflow-wrap: normal ; float: none ; direction: ltr ; max-width: none ; max-height: none ; min-width: 0px ; min-height: 0px ; border: 0px ; padding: 0px ; margin: 0px ; color: rgb(90 , 90 , 90) ; font-family: &amp;#34;helvetica neue&amp;#34; , &amp;#34;helvetica&amp;#34; , &amp;#34;arial&amp;#34; , &amp;#34;hiragino sans gb&amp;#34; , &amp;#34;hiragino sans gb w3&amp;#34; , &amp;#34;wenquanyi micro hei&amp;#34; , &amp;#34;microsoft yahei ui&amp;#34; , &amp;#34;microsoft yahei&amp;#34; , sans-serif ; position: relative&quot;&gt;&lt;nobr style=&quot;transition: none 0s ease 0s ; border: 0px ; padding: 0px ; margin: 0px ; max-width: none ; max-height: none ; min-width: 0px ; min-height: 0px ; vertical-align: 0px ; line-height: normal&quot;&gt;&lt;span class=&quot;math&quot; id=&quot;MathJax-Span-1166&quot; style=&quot;transition: none 0s ease 0s ; display: inline-block ; position: static ; border: 0px ; padding: 0px ; margin: 0px ; vertical-align: 0px ; line-height: normal ; width: 4.378em&quot;&gt;&lt;span style=&quot;transition: none 0s ease 0s ; display: inline-block ; position: relative ; border: 0px ; padding: 0px ; margin: 0px ; vertical-align: 0px ; line-height: normal ; width: 3.648em ; height: 0px ; font-size: 19.2px&quot;&gt;&lt;span style=&quot;transition: none 0s ease 0s ; position: absolute ; border: 0px ; padding: 0px ; margin: 0px ; vertical-align: 0px ; line-height: normal ; clip: rect(1.357em , 1003.65em , 2.346em , -999.997em) ; top: -2.185em ; left: 0em&quot;&gt;&lt;span class=&quot;mrow&quot; id=&quot;MathJax-Span-1167&quot; style=&quot;transition: none 0s ease 0s ; display: inline ; position: static ; border: 0px ; padding: 0px ; margin: 0px ; vertical-align: 0px ; line-height: normal&quot;&gt;&lt;span class=&quot;mi&quot; id=&quot;MathJax-Span-1168&quot; style=&quot;transition: none 0s ease 0s ; display: inline ; position: static ; border: 0px ; padding: 0px ; margin: 0px ; vertical-align: 0px ; line-height: normal&quot;&gt;Y&lt;span style=&quot;transition: none 0s ease 0s ; display: inline-block ; position: static ; border: 0px ; padding: 0px ; margin: 0px ; vertical-align: 0px ; line-height: normal ; overflow: hidden ; height: 1px ; width: 0.159em&quot;&gt;&lt;/span&gt;&lt;/span&gt;&lt;span class=&quot;mo&quot; id=&quot;MathJax-Span-1169&quot; style=&quot;transition: none 0s ease 0s ; display: inline ; position: static ; border: 0px ; padding: 0px 0px 0px 0.263em ; margin: 0px ; vertical-align: 0px ; line-height: normal ; font-family: &amp;#34;mathjax_main&amp;#34;&quot;&gt;=&lt;/span&gt;&lt;span class=&quot;mi&quot; id=&quot;MathJax-Span-1170&quot; style=&quot;transition: none 0s ease 0s ; display: inline ; position: static ; border: 0px ; padding: 0px 0px 0px 0.263em ; margin: 0px ; vertical-align: 0px ; line-height: normal&quot;&gt;P&lt;span style=&quot;transition: none 0s ease 0s ; display: inline-block ; position: static ; border: 0px ; padding: 0px ; margin: 0px ; vertical-align: 0px ; line-height: normal ; overflow: hidden ; height: 1px ; width: 0.107em&quot;&gt;&lt;/span&gt;&lt;/span&gt;&lt;span class=&quot;mi&quot; id=&quot;MathJax-Span-1171&quot; style=&quot;transition: none 0s ease 0s ; display: inline ; position: static ; border: 0px ; padding: 0px ; margin: 0px ; vertical-align: 0px ; line-height: normal&quot;&gt;X&lt;span style=&quot;transition: none 0s ease 0s ; display: inline-block ; position: static ; border: 0px ; padding: 0px ; margin: 0px ; vertical-align: 0px ; line-height: normal ; overflow: hidden ; height: 1px ; width: 0.003em&quot;&gt;&lt;/span&gt;&lt;/span&gt;&lt;/span&gt;&lt;span style=&quot;transition: none 0s ease 0s ; display: inline-block ; position: static ; border: 0px ; padding: 0px ; margin: 0px ; vertical-align: 0px ; line-height: normal ; width: 0px ; height: 2.19em&quot;&gt;&lt;/span&gt;&lt;/span&gt;&lt;/span&gt;&lt;span style=&quot;transition: none 0s ease 0s ; display: inline-block ; position: static ; border-width: 0px ; border-left-style: solid ; padding: 0px ; margin: 0px ; vertical-align: -0.059em ; line-height: normal ; overflow: hidden ; width: 0px ; height: 0.941em&quot;&gt;&lt;/span&gt;&lt;/span&gt;&lt;/nobr&gt;&lt;span class=&quot;MJX_Assistive_MathML&quot; style=&quot;position: static ; padding-top: 0px ; display: inline ; transition: none 0s ease 0s ; margin: 0px ; vertical-align: 0px ; line-height: normal&quot;&gt;Y=PX&lt;/span&gt;&lt;/span&gt;&lt;span style=&quot;color: rgb(90 , 90 , 90) ; font-family: &amp;#34;helvetica neue&amp;#34; , &amp;#34;helvetica&amp;#34; , &amp;#34;arial&amp;#34; , &amp;#34;hiragino sans gb&amp;#34; , &amp;#34;hiragino sans gb w3&amp;#34; , &amp;#34;wenquanyi micro hei&amp;#34; , &amp;#34;microsoft yahei ui&amp;#34; , &amp;#34;microsoft yahei&amp;#34; , sans-serif ; font-size: 16px&quot;&gt;即为降维到k维后的数据&lt;/span&gt;" style="rounded=1;whiteSpace=wrap;html=1;fontFamily=Helvetica;fontSize=12;fontColor=#333333;strokeColor=#666666;fillColor=#f5f5f5;" vertex="1" parent="1">
                    <mxGeometry x="180" y="1646" width="323" height="60" as="geometry"/>
                </mxCell>
                <mxCell id="41" style="edgeStyle=orthogonalEdgeStyle;shape=connector;rounded=1;html=1;exitX=1;exitY=0.5;exitDx=0;exitDy=0;entryX=0;entryY=0.5;entryDx=0;entryDy=0;labelBackgroundColor=default;fontFamily=Helvetica;fontSize=12;fontColor=#333333;endArrow=classic;strokeColor=#001DBC;fillColor=#0050ef;" edge="1" parent="1" source="34" target="37">
                    <mxGeometry relative="1" as="geometry"/>
                </mxCell>
                <mxCell id="42" style="edgeStyle=orthogonalEdgeStyle;shape=connector;rounded=1;html=1;exitX=1;exitY=0.5;exitDx=0;exitDy=0;entryX=0;entryY=0.5;entryDx=0;entryDy=0;labelBackgroundColor=default;fontFamily=Helvetica;fontSize=12;fontColor=#333333;endArrow=classic;strokeColor=#001DBC;fillColor=#0050ef;" edge="1" parent="1" source="34" target="38">
                    <mxGeometry relative="1" as="geometry"/>
                </mxCell>
                <mxCell id="44" style="edgeStyle=orthogonalEdgeStyle;shape=connector;rounded=1;html=1;exitX=1;exitY=0.5;exitDx=0;exitDy=0;entryX=0;entryY=0.5;entryDx=0;entryDy=0;labelBackgroundColor=default;fontFamily=Helvetica;fontSize=12;fontColor=#333333;endArrow=classic;strokeColor=#001DBC;fillColor=#0050ef;" edge="1" parent="1" source="34" target="36">
                    <mxGeometry relative="1" as="geometry"/>
                </mxCell>
                <mxCell id="34" value="用法" style="rounded=1;whiteSpace=wrap;html=1;fontFamily=Helvetica;fontSize=12;fontColor=#333333;strokeColor=#666666;fillColor=#f5f5f5;" vertex="1" parent="1">
                    <mxGeometry x="-31" y="808" width="120" height="60" as="geometry"/>
                </mxCell>
                <mxCell id="36" value="查看组分数与方差关系" style="rounded=1;whiteSpace=wrap;html=1;fontFamily=Helvetica;fontSize=12;fontColor=#333333;strokeColor=#666666;fillColor=#f5f5f5;" vertex="1" parent="1">
                    <mxGeometry x="169" y="714" width="129" height="60" as="geometry"/>
                </mxCell>
                <mxCell id="37" value="数据降维" style="rounded=1;whiteSpace=wrap;html=1;fontFamily=Helvetica;fontSize=12;fontColor=#333333;strokeColor=#666666;fillColor=#f5f5f5;" vertex="1" parent="1">
                    <mxGeometry x="174" y="808" width="120" height="60" as="geometry"/>
                </mxCell>
                <mxCell id="43" style="edgeStyle=orthogonalEdgeStyle;shape=connector;rounded=1;html=1;exitX=1;exitY=0.5;exitDx=0;exitDy=0;labelBackgroundColor=default;fontFamily=Helvetica;fontSize=12;fontColor=#333333;endArrow=classic;strokeColor=#001DBC;fillColor=#0050ef;" edge="1" parent="1" source="38" target="39">
                    <mxGeometry relative="1" as="geometry"/>
                </mxCell>
                <mxCell id="38" value="降维后数据反降维" style="rounded=1;whiteSpace=wrap;html=1;fontFamily=Helvetica;fontSize=12;fontColor=#333333;strokeColor=#666666;fillColor=#f5f5f5;" vertex="1" parent="1">
                    <mxGeometry x="174" y="909" width="120" height="60" as="geometry"/>
                </mxCell>
                <mxCell id="39" value="可以用来去噪" style="rounded=1;whiteSpace=wrap;html=1;fontFamily=Helvetica;fontSize=12;fontColor=#333333;strokeColor=#666666;fillColor=#f5f5f5;" vertex="1" parent="1">
                    <mxGeometry x="366" y="909" width="120" height="60" as="geometry"/>
                </mxCell>
            </root>
        </mxGraphModel>
    </diagram>
</mxfile>